<svg id="emLGfupDTyj1" xmlns="http://www.w3.org/2000/svg" xmlns:xlink="http://www.w3.org/1999/xlink" viewBox="0 0 500 500" shape-rendering="geometricPrecision" text-rendering="geometricPrecision" project-id="2e7b2c399f5f402a883006ec5fb71e91" export-id="6a19be0f2d014480beebc7d7d496f29f" cached="false"><g transform="translate(64.035591 29.616108)"><g><g><path d="M296.12,202.12c-1.108438-.559181-2.436583-.451077-3.44.28l-61,35.18c-2.792864,1.823816-4.549564,4.869259-4.73,8.2v6.83v0v65.39c-.014875.229759-.014875.460241,0,.69.207219,1.546418,1.124444,2.907461,2.48,3.68l5,2.89.24.14c-1.048676-.56902-1.701258-1.666893-1.7-2.86v-63.75v0-9.57c.204737-3.354161,1.999549-6.408686,4.83-8.22l60.94-35.18c.93243-.650911,2.125726-.800541,3.19-.4-1.02-.53-4.93-2.79-5.81-3.3Z" opacity="0.4" fill="#263238"/><path d="M303.45,208c-.006341-.146379-.033273-.291135-.08-.43s0-.07,0-.1c-.024801-.142842-.061598-.283339-.11-.42-.060371-.213789-.154925-.416406-.28-.6-.035391-.093541-.089882-.178684-.16-.25-.032545-.066955-.080528-.125221-.14-.17-.084752-.123218-.189534-.23138-.31-.32v0c-.124013-.091842-.25824-.169022-.4-.23-1.064274-.400541-2.25757-.250911-3.19.4L237.8,241c-2.796148,1.831388-4.74,8.22-4.74,8.22v73.36v0c-.001458,1.158269.615506,2.229216,1.618233,2.808982s2.238677.580154,3.241767.001018l60.82-35.19c2.798216-1.824783,4.558828-4.874281,4.74-8.21v-73.43c-.000773-.187047-.010785-.373941-.03-.56Z" opacity="0" fill="#455a64"/><path d="M298.73,205.83L237.8,241c-1.391357.874123-2.540045,2.084717-3.34,3.52l-6-3.49c.786665-1.416081,1.922723-2.60722,3.3-3.46l60.94-35.18c1.003417-.731077,2.331562-.839181,3.44-.28.85.52,4.79,2.75,5.79,3.29-1.072057-.395442-2.270362-.23442-3.2.43Z" fill="#37474f"/></g><g><path d="M268.93,265.57v-22.74c6-3.43,11.52,0,13.44,8.07c2.37,9.94-1.58,25.43-8.87,33.66l-4.57-18.99Z" fill="#90caf9"/><path d="M268.19,288.05c-1.128317.671221-2.373625,1.122518-3.67,1.33l3.67-19.55l3.68,15.3c-1.090102,1.134032-2.32788,2.116182-3.68,2.92Z" fill="#90caf9"/><g opacity="0.4"><path d="M268.19,288.05c-1.128317.671221-2.373625,1.122518-3.67,1.33l3.67-19.55l3.68,15.3c-1.090102,1.134032-2.32788,2.116182-3.68,2.92Z" fill="#fff"/></g><path d="M262.89,290.69c-4,.15-7.23-3-8.63-8.32l12.79-13.78-4.16,22.1Z" fill="#90caf9"/><g opacity="0.6"><path d="M262.89,290.69c-4,.15-7.23-3-8.63-8.32l12.79-13.78-4.16,22.1Z" fill="#fff"/></g><path d="M254.5,279.74c-.339428-1.772781-.500232-3.575131-.48-5.38c0-11.65,6-24.65,13.44-29.55v21L254.5,279.74Z" fill="#90caf9"/><g opacity="0.75"><path d="M254.5,279.74c-.339428-1.772781-.500232-3.575131-.48-5.38c0-11.65,6-24.65,13.44-29.55v21L254.5,279.74Z" fill="#fff"/></g><path d="M278.5,252.79c0,0,0-.11,0-.23.032504-.149143.109165-.285043.22-.39l.88-.5c.08,0,.11.05.06.22-.034037.150837-.114469.287223-.23.39l-.87.51c0,0-.05.01-.06,0Zm1.74-1c0,0,0-.11,0-.22.034037-.150837.114469-.287223.23-.39l.87-.51c.09,0,.11.05.06.22-.027201.151109-.10474.288565-.22.39l-.88.51c0,0-.04,0-.06-.01v.01Zm1.75-1c0,0,0-.11,0-.22.032733-.151351.11339-.288115.23-.39l.87-.51c.08,0,.11.06.06.23-.036974.149656-.116924.285225-.23.39l-.87.5c0,0-.05,0-.05-.02l-.01.02Zm1.74-1c0,0,0-.11,0-.23.036974-.149656.116924-.285225.23-.39l.87-.5c.09-.05.11,0,.07.22-.036974.149656-.116924.285225-.23.39l-.88.5-.06.01Zm1.75-1c0,0,0-.11,0-.23.032733-.151351.11339-.288115.23-.39l.87-.5c.08,0,.11.05.06.22-.034037.150837-.114469.287223-.23.39l-.87.51c0,0-.05-.02-.06-.03v.03Zm1.74-1c0,0,0-.11,0-.22.034037-.150837.114469-.287223.23-.39l.65-.38c.08,0,.11.05.06.23-.039525.148601-.119082.283502-.23.39l-.65.37c0,0-.04-.03-.06-.04v.04Z" fill="#f0f0f0"/><path d="M248.81,268.36c0,0,0-.11,0-.23.036974-.149656.116924-.285225.23-.39l.87-.5c.09-.05.11.05.07.22-.034037.150837-.114469.287223-.23.39l-.88.51h-.06Zm1.75-1c0,0,0-.11,0-.22.033361-.153947.113733-.293724.23-.4l.87-.5c.08-.05.11,0,.06.22-.029866.152456-.111034.29009-.23.39l-.87.51h-.06Zm1.74-1c0,0,0-.11,0-.22.034037-.150837.114469-.287223.23-.39l.87-.51c.09-.05.11,0,.07.23-.036974.149656-.116924.285225-.23.39l-.88.5h-.06Zm1.75-1c0,0,0-.11,0-.22.032733-.151351.11339-.288115.23-.39l.87-.5c.08-.05.11,0,.06.22-.032733.151351-.11339.288115-.23.39l-.87.5c0,0-.05-.01-.06-.03v.03Zm1.74-1c-.027582-.074186-.027582-.155814,0-.23.036974-.149656.116924-.285225.23-.39l.88-.5c.08,0,.11.05.06.22-.036974.149656-.116924.285225-.23.39l-.87.51h-.07Zm1.75-1c0,0,0-.11,0-.23.039525-.148601.119082-.283502.23-.39l.62-.36c.08,0,.11.06.06.23-.030018.150079-.107079.286687-.22.39l-.63.36h-.06Z" fill="#f0f0f0"/><path d="M277.13,253.35c-.009493-.443819.190579-.866193.54-1.14.3-.17.54.06.54.52.009493.443819-.190579.866193-.54,1.14-.3.13-.54-.06-.54-.52Z" fill="#455a64"/><path d="M258,262.85c-.009493-.443819.190579-.866193.54-1.14.3-.18.54.06.54.51.009493.443819-.190579.866193-.54,1.14-.33.17-.54-.06-.54-.51Z" fill="#455a64"/><path d="M267.66,286.11c-.00571-.437957.189602-.854377.53-1.13.3-.18.54.06.54.51.009493.443819-.190579.866193-.54,1.14-.29.17-.53-.06-.53-.52Z" fill="#455a64"/><path d="M291.5,246.7c-.020916.015021-.049084.015021-.07,0-.011676-.028864-.011676-.061136,0-.09v-.68l-1.13.66c-.020916.015021-.049084.015021-.07,0-.011676-.028864-.011676-.061136,0-.09v-.4c-.004882-.049881-.004882-.100119,0-.15l.06-.16l1.12-2.8c.027556-.089163.079515-.168834.15-.23l.28-.16c0,0,0,0,0,.09v2.25l.31-.18c.020916-.015021.049084-.015021.07,0c.011676.028864.011676.061136,0,.09v.4c.009188.042846.009188.087154,0,.13s0,.07-.07.08l-.31.18v.69c.009001.039494.009001.080506,0,.12-.018257.033624-.041904.064028-.07.09l-.27.16Zm-.1-1.48v-1.22l-.62,1.57.62-.35Z" fill="#90caf9"/><path d="M292.79,242.16c-.009001-.039494-.009001-.080506,0-.12.015019-.03563.039163-.066673.07-.09l1.37-.79c0,0,.05,0,.07,0c.011676.028864.011676.061136,0,.09v.4c.009001.039494.009001.080506,0,.12-.012561.034343-.03313.065196-.06.09l-1,.59v.75c.055551-.070665.119335-.134449.19-.19l.16-.1c.115793-.072095.245111-.119738.38-.14.109511-.010434.219213.017876.31.08.09209.076414.161299.176766.2.29.052525.168138.076193.343958.07.52.005438.222713-.02151.445035-.08.66-.037751.189427-.105253.371683-.2.54-.083517.153596-.187835.29493-.31.42-.109221.113432-.233758.211043-.37.29-.128996.085938-.276204.140713-.43.16-.105257.015506-.212476-.009512-.3-.07-.083874-.06324-.146628-.150399-.18-.25-.040418-.122916-.063966-.25075-.07-.38-.010199-.042733-.010199-.087267,0-.13s0-.07.07-.08l.3-.17c0,0,0,0,0,.07.011656.0608.035465.118621.07.17.027262.035578.066224.060372.11.07.04563.013914.09437.013914.14,0l.16-.07c.144809-.090195.262342-.218098.34-.37.085234-.174395.129689-.365891.13-.56.010768-.13018-.036862-.258414-.13-.35-.103959-.065188-.236041-.065188-.34,0l-.17.13c-.041948.034817-.078955.075189-.11.12-.020935.034949-.044328.068367-.07.1-.021351.031499-.048501.058649-.08.08l-.34.19c-.020916.015021-.049084.015021-.07,0s0,0,0-.09l.17-1.98Z" fill="#90caf9"/><path d="M295.36,240.49c.069664-.042071.14871-.066129.23-.07.130537.009559.239809.102643.27.23.028176.077164.045018.158004.05.24v.62c-.00782.094699-.024561.188448-.05.28-.019751.100829-.053406.198427-.1.29-.04367.091467-.100991.175764-.17.25-.062346.078907-.140743.14367-.23.19-.067084.048795-.147115.076632-.23.08-.062311.002851-.123283-.018668-.17-.06-.050401-.044725-.085397-.104218-.1-.17-.027129-.074013-.043953-.151404-.05-.23v-.63c.008625-.094592.025353-.188269.05-.28.046019-.198823.138553-.383891.27-.54.064738-.079258.14252-.146895.23-.2Zm.19,1.17c.005971-.036424.005971-.073576,0-.11v-.31c.006001-.033063.006001-.066937,0-.1.012501-.055977.012501-.114023,0-.17s-.08,0-.15,0c-.064638.037432-.116812.093083-.15.16-.010394.072965-.010394.147035,0,.22-.005971.036424-.005971.073576,0,.11v.31c-.006735.032993-.006735.067007,0,.1-.012501.055977-.012501.114023,0,.17s.08,0,.15,0c.066779-.034673.119703-.091126.15-.16.010394-.072965.010394-.147035,0-.22Zm1.28-1.88c.014761-.037503.03145-.074219.05-.11.021765-.028404.048958-.052199.08-.07l.22-.13h.06c0,0,0,0,0,.07l-1.81,4.71c-.008462.039869-.025526.077409-.05.11-.018411.033811-.046189.061589-.08.08l-.22.12c0,0,0,0,0-.07v0l1.75-4.71Zm.12,1.78c.067071-.04761.147778-.072173.23-.07.062157-.001839.122767.019554.17.06.048941.045909.083652.104919.1.17.01122.076256.01122.153744,0,.23.005342.103264.005342.206736,0,.31c0,.11,0,.21,0,.31.009063.096454.009063.193546,0,.29-.024401.096287-.057884.19004-.1.28-.092179.182065-.229998.337112-.4.45-.071302.046587-.154833.070951-.24.07-.061867.000067-.121881-.021114-.17-.06-.043384-.046351-.077347-.100692-.1-.16-.011218-.079607-.011218-.160393,0-.24-.005508-.10326-.005508-.20674,0-.31c0-.11,0-.21,0-.31-.004843-.093271-.004843-.186729,0-.28.027293-.098645.06069-.195499.1-.29.04734-.089308.104349-.173144.17-.25.08015-.087909.179347-.15632.29-.2h-.05Zm.19,1.16v-.52c-.001125-.057001-.018469-.112501-.05-.16s-.07,0-.14,0c-.069671.035695-.123258.096427-.15.17-.028286.0702-.045166.14447-.05.22v.11c-.004946.049878-.004946.100122,0,.15c0,.05,0,.1,0,.15v.16c.003052.05667.020241.111676.05.16s.07,0,.15,0c.064068-.035163.113652-.091831.14-.16.03347-.08954.050411-.18441.05-.28Z" fill="#90caf9"/><path d="M240.88,269.63c0,0,.05,0,.07,0c.011676.028864.011676.061136,0,.09v.4c.009188.042846.009188.087154,0,.13c0,.05,0,.09,0,.13l-.53,1.17c.092743-.034456.191073-.051409.29-.05.087046.009086.168288.047941.23.11.074711.065766.127129.15313.15.25.033879.134013.050679.271772.05.41.002628.192296-.020921.384054-.07.57-.049104.177872-.11962.349124-.21.51-.09208.150536-.199304.291267-.32.42-.113128.122943-.244703.227528-.39.31-.1378.084817-.29054.142518-.45.17-.107079.013297-.215616-.00771-.31-.06-.088751-.051536-.156143-.133116-.19-.23-.048886-.099849-.076147-.208892-.08-.32-.009001-.039494-.009001-.080506,0-.12.015019-.03563.039163-.066673.07-.09l.29-.16v.08c.012891.034175.033412.064957.06.09.024827.024632.05597.041934.09.05.052941.009145.107059.009145.16,0l.22-.1c.147813-.084152.271718-.204616.36-.35.091293-.139759.139938-.303066.14-.47c0-.17,0-.27-.14-.29-.127745-.007289-.254316.02787-.36.1l-.31.18c-.020916.015021-.049084.015021-.07,0-.006838-.02961-.006838-.06039,0-.09v-.4c-.01375-.042243-.01375-.087757,0-.13.017984-.040977.038009-.081027.06-.12l.51-1.13-1,.59c-.020916.015021-.049084.015021-.07,0-.011676-.028864-.011676-.061136,0-.09v-.4c-.009001-.039494-.009001-.080506,0-.12.015019-.03563.039163-.066673.07-.09l1.68-.95Z" fill="#90caf9"/><path d="M243.43,269.62c.00543.079908.00543.160092,0,.24v.53c.005195.079916.005195.160084,0,.24.000317.214752-.019774.429049-.06.64-.034015.199264-.091064.393902-.17.58-.078286.178769-.179103.346798-.3.5-.124193.151742-.277115.277478-.45.37-.134175.096281-.29486.148678-.46.15-.113601-.006477-.219068-.061028-.29-.15-.09171-.111736-.150566-.246759-.17-.39-.041507-.187324-.064948-.378199-.07-.57v-1c.007955-.218048.031347-.435258.07-.65.029316-.203538.08652-.402069.17-.59.070882-.180346.168656-.348922.29-.5.132066-.153184.287274-.284773.46-.39.133806-.088148.289803-.13668.45-.14.118221-.0008.229707.054943.3.15.087711.114139.146084.248053.17.39.044941.193326.065103.391585.06.59ZM242,271.45c-.008563.195031.036393.388688.13.56.07.1.19.11.36,0c.167953-.0952.295815-.247924.36-.43.08027-.228393.124138-.467983.13-.71c0-.14,0-.3,0-.47s0-.33,0-.47c.012414-.195367-.032788-.390082-.13-.56-.07-.11-.19-.11-.36,0-.167953.0952-.295815.247924-.36.43-.08485.22368-.128881.46077-.13.7c0,.15,0,.31,0,.48s0,.33,0,.47Z" fill="#90caf9"/><path d="M244.34,267.6c.070762-.047749.154663-.072221.24-.07.05906-.001289.116351.020195.16.06.049982.046848.087746.10521.11.17.005623.076564.005623.153436,0,.23c0,.09,0,.2,0,.31s0,.22,0,.32s0,.18,0,.28c-.027903.096543-.064728.190281-.11.28-.043696.09224-.097349.179425-.16.26-.070927.074019-.151681.137949-.24.19-.069418.044157-.148163.071546-.23.08-.06027-.007763-.11821-.028212-.17-.06-.044742-.049134-.078794-.107022-.1-.17-.011218-.079607-.011218-.160393,0-.24-.005342-.099929-.005342-.200071,0-.3c0-.11,0-.22,0-.32-.009033-.093115-.009033-.186885,0-.28.024311-.099546.057787-.196627.1-.29.04734-.089308.104349-.173144.17-.25.061958-.081904.140286-.150016.23-.2Zm.2,1.16v-.52c.012728-.052574.012728-.107426,0-.16s-.08,0-.15,0c-.06531.038318-.114917.098554-.14.17-.015097.072556-.015097.147444,0,.22s0,.06,0,.11v.3c0,.05,0,.08,0,.11-.017527.051893-.017527.108107,0,.16s.07,0,.14,0c.065349-.041015.117441-.100053.15-.17.010261-.072974.010261-.147026,0-.22Zm1.27-1.87l.05-.11c.019012-.030855.046894-.055252.08-.07l.22-.13c.020916-.015021.049084-.015021.07,0c.006957.022815.006957.047185,0,.07v0v0l-1.8,4.71-.06.11c-.019463.03047-.047216.054754-.08.07l-.22.13c0,0,0,0-.06,0s0,0,0-.06v0c0,0,0,0,0,0l1.8-4.72Zm.12,1.77c.069664-.042071.14871-.066129.23-.07.061246.003295.120254.024121.17.06.047.047432.081379.105875.1.17.01042.076313.01042.153687,0,.23c0,.1,0,.2,0,.31s0,.22,0,.32c.009033.093115.009033.186885,0,.28-.022763.096778-.056306.190698-.1.28-.044858.093838-.102029.181275-.17.26-.062346.078907-.140743.14367-.23.19-.070168.050129-.153788.078002-.24.08-.05906.001289-.116351-.020195-.16-.06-.049982-.046848-.087746-.10521-.11-.17-.005623-.076564-.005623-.153436,0-.23c0-.1,0-.2,0-.31s0-.22,0-.32s0-.18,0-.28c.026199-.097114.063092-.191022.11-.28.043696-.09224.097349-.179425.16-.26.070616-.077184.151348-.14446.24-.2Zm.19,1.17c.005066-.036492.005066-.073508,0-.11c0-.05,0-.1,0-.16v-.15c.005241-.033127.005241-.066873,0-.1.003754-.060773-.013941-.120936-.05-.17s-.07,0-.14,0c-.066779.034673-.119703.091126-.15.16-.027106.070564-.043944.144652-.05.22v.52c.001125.057001.018469.112501.05.16s.08,0,.15,0c.067205-.036053.117502-.097129.14-.17.030379-.06247.047407-.130584.05-.2Z" fill="#90caf9"/><g opacity="0.75"><path d="M240.88,269.63c0,0,.05,0,.07,0c.011676.028864.011676.061136,0,.09v.4c.009188.042846.009188.087154,0,.13c0,.05,0,.09,0,.13l-.53,1.17c.092743-.034456.191073-.051409.29-.05.087046.009086.168288.047941.23.11.074711.065766.127129.15313.15.25.033879.134013.050679.271772.05.41.002628.192296-.020921.384054-.07.57-.049104.177872-.11962.349124-.21.51-.09208.150536-.199304.291267-.32.42-.113128.122943-.244703.227528-.39.31-.1378.084817-.29054.142518-.45.17-.107079.013297-.215616-.00771-.31-.06-.088751-.051536-.156143-.133116-.19-.23-.048886-.099849-.076147-.208892-.08-.32-.009001-.039494-.009001-.080506,0-.12.015019-.03563.039163-.066673.07-.09l.29-.16v.08c.012891.034175.033412.064957.06.09.024827.024632.05597.041934.09.05.052941.009145.107059.009145.16,0l.22-.1c.147813-.084152.271718-.204616.36-.35.091293-.139759.139938-.303066.14-.47c0-.17,0-.27-.14-.29-.127745-.007289-.254316.02787-.36.1l-.31.18c-.020916.015021-.049084.015021-.07,0-.006838-.02961-.006838-.06039,0-.09v-.4c-.01375-.042243-.01375-.087757,0-.13.017984-.040977.038009-.081027.06-.12l.51-1.13-1,.59c-.020916.015021-.049084.015021-.07,0-.011676-.028864-.011676-.061136,0-.09v-.4c-.009001-.039494-.009001-.080506,0-.12.015019-.03563.039163-.066673.07-.09l1.68-.95Z" fill="#fff"/><path d="M243.43,269.62c.00543.079908.00543.160092,0,.24v.53c.005195.079916.005195.160084,0,.24.000317.214752-.019774.429049-.06.64-.034015.199264-.091064.393902-.17.58-.078286.178769-.179103.346798-.3.5-.124193.151742-.277115.277478-.45.37-.134175.096281-.29486.148678-.46.15-.113601-.006477-.219068-.061028-.29-.15-.09171-.111736-.150566-.246759-.17-.39-.041507-.187324-.064948-.378199-.07-.57v-1c.007955-.218048.031347-.435258.07-.65.029316-.203538.08652-.402069.17-.59.070882-.180346.168656-.348922.29-.5.132066-.153184.287274-.284773.46-.39.133806-.088148.289803-.13668.45-.14.118221-.0008.229707.054943.3.15.087711.114139.146084.248053.17.39.044941.193326.065103.391585.06.59ZM242,271.45c-.008563.195031.036393.388688.13.56.07.1.19.11.36,0c.167953-.0952.295815-.247924.36-.43.08027-.228393.124138-.467983.13-.71c0-.14,0-.3,0-.47s0-.33,0-.47c.012414-.195367-.032788-.390082-.13-.56-.07-.11-.19-.11-.36,0-.167953.0952-.295815.247924-.36.43-.08485.22368-.128881.46077-.13.7c0,.15,0,.31,0,.48s0,.33,0,.47Z" fill="#fff"/><path d="M244.34,267.6c.070762-.047749.154663-.072221.24-.07.05906-.001289.116351.020195.16.06.049982.046848.087746.10521.11.17.005623.076564.005623.153436,0,.23c0,.09,0,.2,0,.31s0,.22,0,.32s0,.18,0,.28c-.027903.096543-.064728.190281-.11.28-.043696.09224-.097349.179425-.16.26-.070927.074019-.151681.137949-.24.19-.069418.044157-.148163.071546-.23.08-.06027-.007763-.11821-.028212-.17-.06-.044742-.049134-.078794-.107022-.1-.17-.011218-.079607-.011218-.160393,0-.24-.005342-.099929-.005342-.200071,0-.3c0-.11,0-.22,0-.32-.009033-.093115-.009033-.186885,0-.28.024311-.099546.057787-.196627.1-.29.04734-.089308.104349-.173144.17-.25.061958-.081904.140286-.150016.23-.2Zm.2,1.16v-.52c.012728-.052574.012728-.107426,0-.16s-.08,0-.15,0c-.06531.038318-.114917.098554-.14.17-.015097.072556-.015097.147444,0,.22s0,.06,0,.11v.3c0,.05,0,.08,0,.11-.017527.051893-.017527.108107,0,.16s.07,0,.14,0c.065349-.041015.117441-.100053.15-.17.010261-.072974.010261-.147026,0-.22Zm1.27-1.87l.05-.11c.019012-.030855.046894-.055252.08-.07l.22-.13c.020916-.015021.049084-.015021.07,0c.006957.022815.006957.047185,0,.07v0v0l-1.8,4.71-.06.11c-.019463.03047-.047216.054754-.08.07l-.22.13c0,0,0,0-.06,0s0,0,0-.06v0c0,0,0,0,0,0l1.8-4.72Zm.12,1.77c.069664-.042071.14871-.066129.23-.07.061246.003295.120254.024121.17.06.047.047432.081379.105875.1.17.01042.076313.01042.153687,0,.23c0,.1,0,.2,0,.31s0,.22,0,.32c.009033.093115.009033.186885,0,.28-.022763.096778-.056306.190698-.1.28-.044858.093838-.102029.181275-.17.26-.062346.078907-.140743.14367-.23.19-.070168.050129-.153788.078002-.24.08-.05906.001289-.116351-.020195-.16-.06-.049982-.046848-.087746-.10521-.11-.17-.005623-.076564-.005623-.153436,0-.23c0-.1,0-.2,0-.31s0-.22,0-.32s0-.18,0-.28c.026199-.097114.063092-.191022.11-.28.043696-.09224.097349-.179425.16-.26.070616-.077184.151348-.14446.24-.2Zm.19,1.17c.005066-.036492.005066-.073508,0-.11c0-.05,0-.1,0-.16v-.15c.005241-.033127.005241-.066873,0-.1.003754-.060773-.013941-.120936-.05-.17s-.07,0-.14,0c-.066779.034673-.119703.091126-.15.16-.027106.070564-.043944.144652-.05.22v.52c.001125.057001.018469.112501.05.16s.08,0,.15,0c.067205-.036053.117502-.097129.14-.17.030379-.06247.047407-.130584.05-.2Z" fill="#fff"/></g><path d="M250.67,298.39c0,0,0-.11,0-.22.03732-.152392.117068-.291085.23-.4l.87-.5c.09,0,.11.05.07.22-.034037.150837-.114469.287223-.23.39l-.88.51h-.06Zm1.75-1c0,0,0-.11,0-.22.029866-.152456.111034-.29009.23-.39l.87-.51c.08-.05.11.06.06.23-.035263.150348-.115491.286387-.23.39l-.87.5h-.06Zm1.74-1c0,0,0-.11,0-.22.036974-.149656.116924-.285225.23-.39l.88-.5c.08-.05.1.05.06.22-.036974.149656-.116924.285225-.23.39l-.88.5h-.06Zm1.75-1c0,0,0-.11,0-.23.032733-.151351.11339-.288115.23-.39l.87-.5c.08-.05.11.05.06.22-.032733.151351-.11339.288115-.23.39l-.87.5c0,0-.05,0-.06-.01v.02Zm1.74-1c-.027582-.074186-.027582-.155814,0-.23.039525-.148601.119082-.283502.23-.39l.88-.5c.08-.05.11.05.06.22-.034037.150837-.114469.287223-.23.39l-.87.51h-.07Zm1.25-1.49c-.008409-.026004-.008409-.053996,0-.08v-1.34c.014287-.162761.073102-.318448.17-.45.09-.13.17-.13.17,0v1.34c-.019207.161598-.077562.316067-.17.45-.07.05-.14.08-.17.05v.03Zm0-2.68c-.006838-.02961-.006838-.06039,0-.09v-1.34c.016221-.162313.074849-.317505.17-.45.09-.13.17-.13.17,0v1.34c-.016221.162313-.074849.317505-.17.45-.07.06-.14.08-.17.06v.03Zm0-2.69c-.007242-.026175-.007242-.053825,0-.08v-1.35c.019207-.161598.077562-.316067.17-.45.09-.13.17-.13.17,0v1.35c-.014287.162761-.073102.318448-.17.45-.07.05-.14.08-.17.05v.03Z" fill="#f0f0f0"/><ellipse rx="0.91" ry="0.49" transform="matrix(.29-.96 0.96 0.29 259.302518 283.026494)" fill="#455a64"/><path d="M241.58,298.64c0,0,0,0,.07,0c.011676.028864.011676.061136,0,.09v.4c.009188.042846.009188.087154,0,.13-.01052.045454-.02735.089212-.05.13l-.53,1.17c.095351-.022551.194649-.022551.29,0c.086839.001766.169481.037697.23.1.074711.065766.127129.15313.15.25.017151.136129.017151.273871,0,.41.002628.192296-.020921.384054-.07.57-.049104.177872-.11962.349124-.21.51-.09208.150536-.199304.291267-.32.42-.113128.122943-.244703.227528-.39.31-.1378.084817-.29054.142518-.45.17-.107079.013297-.215616-.00771-.31-.06-.085448-.050868-.152112-.128057-.19-.22-.047598-.103846-.074759-.215885-.08-.33-.009001-.039494-.009001-.080506,0-.12s0-.07.07-.08l.29-.17.05.08c.012891.034175.033412.064957.06.09.024827.024632.05597.041934.09.05.052941.009145.107059.009145.16,0l.22-.1c.147813-.084152.271718-.204616.36-.35.091293-.139759.139938-.303066.14-.47c0-.17-.05-.26-.14-.29-.127201-.002617-.252373.032153-.36.1l-.31.18c0,0-.05,0-.06,0-.011676-.028864-.011676-.061136,0-.09v-.4c-.004091-.043237-.004091-.086763,0-.13l.06-.12.51-1.13-1,.59c-.020916.015021-.049084.015021-.07,0-.011676-.028864-.011676-.061136,0-.09v-.4c-.009001-.039494-.009001-.080506,0-.12.015019-.03563.039163-.066673.07-.09l1.72-.99Z" fill="#90caf9"/><path d="M244.13,298.64c.005696.076561.005696.153439,0,.23v.53c.00543.079908.00543.160092,0,.24.000317.214752-.019774.429049-.06.64-.034015.199264-.091064.393902-.17.58-.068323.183735-.170033.353251-.3.5-.124193.151742-.277115.277478-.45.37-.131093.094915-.288176.147276-.45.15-.118221.0008-.229707-.054943-.3-.15-.09171-.111736-.150566-.246759-.17-.39-.040878-.184052-.064315-.371548-.07-.56v-.49c0-.18,0-.34,0-.49-.000351-.218065.019737-.435684.06-.65.029316-.203538.08652-.402069.17-.59.148963-.368893.411693-.680666.75-.89.133806-.088148.289803-.13668.45-.14.117146.003634.226805.058464.3.15.09171.111736.150566.246759.17.39.046352.18646.069858.377865.07.57Zm-1.47,1.82c-.012414.195367.032788.390082.13.56.07.1.19.11.36,0c.167953-.0952.295815-.247924.36-.43.086035-.226824.130085-.467408.13-.71c0-.14,0-.3,0-.47s0-.33,0-.47c.008563-.195031-.036393-.388688-.13-.56-.07-.1-.19-.11-.36,0-.167953.0952-.295815.247924-.36.43-.086035.226824-.130085.467408-.13.71c0,.14,0,.3,0,.47s-.01.33,0,.47Z" fill="#90caf9"/><path d="M245,296.61c.070762-.047749.154663-.072221.24-.07.05906-.001289.116351.020195.16.06.049982.046848.087746.10521.11.17.005623.076564.005623.153436,0,.23c0,.1,0,.2,0,.31s0,.22,0,.32s0,.18,0,.28c-.026199.097114-.063092.191022-.11.28-.041327.093505-.095151.18097-.16.26-.070927.074019-.151681.137949-.24.19-.069418.044157-.148163.071546-.23.08-.062157.001839-.122767-.019554-.17-.06-.044742-.049134-.078794-.107022-.1-.17-.01042-.076313-.01042-.153687,0-.23c0-.1,0-.2,0-.31s0-.22,0-.32c-.009033-.093115-.009033-.186885,0-.28.022763-.096778.056306-.190698.1-.28.044858-.093838.102029-.181275.17-.26.061958-.081904.140286-.150016.23-.2Zm.2,1.16v-.52c-.003052-.05667-.020241-.111676-.05-.16s-.08,0-.15,0c-.06531.038318-.114917.098554-.14.17-.031971.068995-.049009.143964-.05.22s0,.06,0,.11v.3c0,.05,0,.09,0,.11-.002243.057498.015417.11401.05.16s.07,0,.14,0c.067477-.038455.120246-.09826.15-.17.040924-.068375.071267-.142547.09-.22h-.04Zm1.27-1.87l.05-.11c.021765-.028404.048958-.052199.08-.07l.22-.13c.020916-.015021.049084-.015021.07,0c.006957.022815.006957.047185,0,.07v0l-1.81,4.71-.06.11c-.015347.030147-.039853.054653-.07.07l-.22.13c-.020916.015021-.049084.015021-.07,0-.005927-.022957-.005927-.047043,0-.07v0c0,0,0,0,0,0l1.81-4.71Zm.12,1.77c.069664-.042071.14871-.066129.23-.07.061246.003295.120254.024121.17.06.044742.049134.078794.107022.1.17.015893.079211.015893.160789,0,.24.005342.099929.005342.200071,0,.3c0,.11,0,.22,0,.32.009033.093115.009033.186885,0,.28-.024311.099546-.057787.196627-.1.29-.04734.089308-.104349.173144-.17.25-.062346.078907-.140743.14367-.23.19-.070168.050129-.153788.078002-.24.08-.05906.001289-.116351-.020195-.16-.06-.049982-.046848-.087746-.10521-.11-.17-.005623-.076564-.005623-.153436,0-.23v-.63c0-.09,0-.18,0-.28.027903-.096543.064728-.190281.11-.28.043696-.09224.097349-.179425.16-.26.082872-.080216.177243-.147624.28-.2h-.04Zm.19,1.17c0,0,0-.06,0-.11v-.31c0-.05,0-.08,0-.1.016982-.055394.016982-.114606,0-.17s-.07,0-.14,0c-.066779.034673-.119703.091126-.15.16-.010261.072974-.010261.147026,0,.22v.52c-.014484.05235-.014484.10765,0,.16s.08,0,.15,0c.064068-.035163.113652-.091831.14-.16.027194-.066635.040794-.138034.04-.21h-.04Z" fill="#90caf9"/><g opacity="0.6"><path d="M241.58,298.64c0,0,0,0,.07,0c.011676.028864.011676.061136,0,.09v.4c.009188.042846.009188.087154,0,.13-.01052.045454-.02735.089212-.05.13l-.53,1.17c.095351-.022551.194649-.022551.29,0c.086839.001766.169481.037697.23.1.074711.065766.127129.15313.15.25.017151.136129.017151.273871,0,.41.002628.192296-.020921.384054-.07.57-.049104.177872-.11962.349124-.21.51-.09208.150536-.199304.291267-.32.42-.113128.122943-.244703.227528-.39.31-.1378.084817-.29054.142518-.45.17-.107079.013297-.215616-.00771-.31-.06-.085448-.050868-.152112-.128057-.19-.22-.047598-.103846-.074759-.215885-.08-.33-.009001-.039494-.009001-.080506,0-.12s0-.07.07-.08l.29-.17.05.08c.012891.034175.033412.064957.06.09.024827.024632.05597.041934.09.05.052941.009145.107059.009145.16,0l.22-.1c.147813-.084152.271718-.204616.36-.35.091293-.139759.139938-.303066.14-.47c0-.17-.05-.26-.14-.29-.127201-.002617-.252373.032153-.36.1l-.31.18c0,0-.05,0-.06,0-.011676-.028864-.011676-.061136,0-.09v-.4c-.004091-.043237-.004091-.086763,0-.13l.06-.12.51-1.13-1,.59c-.020916.015021-.049084.015021-.07,0-.011676-.028864-.011676-.061136,0-.09v-.4c-.009001-.039494-.009001-.080506,0-.12.015019-.03563.039163-.066673.07-.09l1.72-.99Z" fill="#fff"/><path d="M244.13,298.64c.005696.076561.005696.153439,0,.23v.53c.00543.079908.00543.160092,0,.24.000317.214752-.019774.429049-.06.64-.034015.199264-.091064.393902-.17.58-.068323.183735-.170033.353251-.3.5-.124193.151742-.277115.277478-.45.37-.131093.094915-.288176.147276-.45.15-.118221.0008-.229707-.054943-.3-.15-.09171-.111736-.150566-.246759-.17-.39-.040878-.184052-.064315-.371548-.07-.56v-.49c0-.18,0-.34,0-.49-.000351-.218065.019737-.435684.06-.65.029316-.203538.08652-.402069.17-.59.148963-.368893.411693-.680666.75-.89.133806-.088148.289803-.13668.45-.14.117146.003634.226805.058464.3.15.09171.111736.150566.246759.17.39.046352.18646.069858.377865.07.57Zm-1.47,1.82c-.012414.195367.032788.390082.13.56.07.1.19.11.36,0c.167953-.0952.295815-.247924.36-.43.086035-.226824.130085-.467408.13-.71c0-.14,0-.3,0-.47s0-.33,0-.47c.008563-.195031-.036393-.388688-.13-.56-.07-.1-.19-.11-.36,0-.167953.0952-.295815.247924-.36.43-.086035.226824-.130085.467408-.13.71c0,.14,0,.3,0,.47s-.01.33,0,.47Z" fill="#fff"/><path d="M245,296.61c.070762-.047749.154663-.072221.24-.07.05906-.001289.116351.020195.16.06.049982.046848.087746.10521.11.17.005623.076564.005623.153436,0,.23c0,.1,0,.2,0,.31s0,.22,0,.32s0,.18,0,.28c-.026199.097114-.063092.191022-.11.28-.041327.093505-.095151.18097-.16.26-.070927.074019-.151681.137949-.24.19-.069418.044157-.148163.071546-.23.08-.062157.001839-.122767-.019554-.17-.06-.044742-.049134-.078794-.107022-.1-.17-.01042-.076313-.01042-.153687,0-.23c0-.1,0-.2,0-.31s0-.22,0-.32c-.009033-.093115-.009033-.186885,0-.28.022763-.096778.056306-.190698.1-.28.044858-.093838.102029-.181275.17-.26.061958-.081904.140286-.150016.23-.2Zm.2,1.16v-.52c-.003052-.05667-.020241-.111676-.05-.16s-.08,0-.15,0c-.06531.038318-.114917.098554-.14.17-.031971.068995-.049009.143964-.05.22s0,.06,0,.11v.3c0,.05,0,.09,0,.11-.002243.057498.015417.11401.05.16s.07,0,.14,0c.067477-.038455.120246-.09826.15-.17.040924-.068375.071267-.142547.09-.22h-.04Zm1.27-1.87l.05-.11c.021765-.028404.048958-.052199.08-.07l.22-.13c.020916-.015021.049084-.015021.07,0c.006957.022815.006957.047185,0,.07v0l-1.81,4.71-.06.11c-.015347.030147-.039853.054653-.07.07l-.22.13c-.020916.015021-.049084.015021-.07,0-.005927-.022957-.005927-.047043,0-.07v0c0,0,0,0,0,0l1.81-4.71Zm.12,1.77c.069664-.042071.14871-.066129.23-.07.061246.003295.120254.024121.17.06.044742.049134.078794.107022.1.17.015893.079211.015893.160789,0,.24.005342.099929.005342.200071,0,.3c0,.11,0,.22,0,.32.009033.093115.009033.186885,0,.28-.024311.099546-.057787.196627-.1.29-.04734.089308-.104349.173144-.17.25-.062346.078907-.140743.14367-.23.19-.070168.050129-.153788.078002-.24.08-.05906.001289-.116351-.020195-.16-.06-.049982-.046848-.087746-.10521-.11-.17-.005623-.076564-.005623-.153436,0-.23v-.63c0-.09,0-.18,0-.28.027903-.096543.064728-.190281.11-.28.043696-.09224.097349-.179425.16-.26.082872-.080216.177243-.147624.28-.2h-.04Zm.19,1.17c0,0,0-.06,0-.11v-.31c0-.05,0-.08,0-.1.016982-.055394.016982-.114606,0-.17s-.07,0-.14,0c-.066779.034673-.119703.091126-.15.16-.010261.072974-.010261.147026,0,.22v.52c-.014484.05235-.014484.10765,0,.16s.08,0,.15,0c.064068-.035163.113652-.091831.14-.16.027194-.066635.040794-.138034.04-.21h-.04Z" fill="#fff"/></g><path d="M287.34,279.21c-.011438-.032352-.011438-.067648,0-.1-.008672-.03953-.008672-.08047,0-.12l.79-1.43.06-.1.07-.07.29-.16c.010716.029043.010716.060957,0,.09v3.68c.004817.039855.004817.080145,0,.12-.015246.032784-.03953.060537-.07.08l-.3.18c-.020916.015021-.049084.015021-.07,0-.011676-.028864-.011676-.061136,0-.09v-2.78l-.52.92c-.015246.032784-.03953.060537-.07.08s-.05,0-.07,0l-.11-.3Z" fill="#90caf9"/><path d="M291.1,277.24v1c-.007401.218087-.030797.435338-.07.65-.030677.200021-.087846.395067-.17.58-.070759.179529-.17228.345345-.3.49-.12379.154795-.276659.283884-.45.38-.135799.085367-.290141.136814-.45.15-.116492-.006168-.225171-.060507-.3-.15-.085727-.1153-.143883-.248716-.17-.39-.036904-.187839-.056983-.378594-.06-.57c0-.14,0-.3,0-.48s0-.35,0-.49c-.00077-.218084.019321-.435742.06-.65.034048-.202491.091083-.400437.17-.59.068049-.186878.169724-.359726.3-.51.12379-.154795.276659-.283884.45-.38.133806-.088148.289803-.13668.45-.14.116799-.004809.228661.047394.3.14.089588.113022.148179.247438.17.39.040531.187491.063961.378273.07.57Zm-1.48,1.83c-.010452.192019.034685.38298.13.55.07.11.19.11.36,0c.170007-.09543.300996-.24766.37-.43.076642-.225551.117142-.461801.12-.7c0-.15,0-.3,0-.48s0-.33,0-.47c.007478-.19056-.033827-.379873-.12-.55-.08-.11-.2-.11-.37,0-.169785.092985-.298318.24651-.36.43-.08485.22368-.128881.46077-.13.7c0,.15,0,.3,0,.48s0,.33,0,.47Z" fill="#90caf9"/><path d="M292,275.22c.070168-.050129.153788-.078002.24-.08.059259.006338.115126.03078.16.07.049904.042908.087808.098041.11.16.011218.079607.011218.160393,0,.24c0,.09,0,.19,0,.3s0,.22,0,.32s0,.18,0,.28c-.026193.100321-.06307.197544-.11.29-.043765.089084-.097437.172947-.16.25-.070616.077184-.151348.14446-.24.2-.069106.04331-.148484.067468-.23.07-.062157.001839-.122767-.019554-.17-.06-.047-.047432-.081379-.105875-.1-.17-.01122-.076256-.01122-.153744,0-.23-.005342-.103264-.005342-.206736,0-.31c0-.11,0-.21,0-.32.008391-.194203.056015-.384696.14-.56.047193-.092504.104186-.179671.17-.26.052593-.073233.116767-.137407.19-.19Zm.2,1.16v-.52c-.003037-.059815-.020169-.118065-.05-.17s-.08,0-.15,0c-.064068.035163-.113652.091831-.14.16-.027106.070564-.043944.144652-.05.22.004129.03655.004129.07345,0,.11v.31c.003634.033234.003634.066766,0,.1-.001478.060495.016005.119938.05.17s.07,0,.14,0c.066779-.034673.119703-.091126.15-.16.027106-.070564.043944-.144652.05-.22Zm1.27-1.88l.06-.11c.015347-.030147.039853-.054653.07-.07l.22-.13h.07c.008433.022571.008433.047429,0,.07v0c0,0,0,0,0,0l-1.8,4.74v.1l-.08.08-.22.12c-.020916.015021-.049084.015021-.07,0-.008433-.022571-.008433-.047429,0-.07v0c0,0,0,0,0,0l1.75-4.73Zm.12,1.78c.067675-.046366.147969-.070804.23-.07.062311-.002851.123283.018668.17.06.050401.044725.085397.104218.1.17.028205.073696.045063.151246.05.23v.62c-.007723.097997-.02446.195075-.05.29-.019195.097795-.0529.192171-.1.28-.041273.092822-.09885.177495-.17.25-.061958.081904-.140286.150016-.23.2-.067675.046366-.147969.070804-.23.07-.062311.002851-.123283-.018668-.17-.06-.050236-.040696-.085433-.097011-.1-.16-.010298-.076321-.010298-.153679,0-.23v-.63c-.008672-.093132-.008672-.186868,0-.28.019751-.100829.053406-.198427.1-.29.043765-.089084.097437-.172947.16-.25.067873-.080003.149069-.147667.24-.2Zm.19,1.16c.006557-.036373.006557-.073627,0-.11v-.33c-.002599-.092045-.019466-.183128-.05-.27s-.08,0-.15,0c-.065349.041015-.117441.100053-.15.17-.01127.0729-.01127.1471,0,.22-.006557.036373-.006557.073627,0,.11v.3c.002599.092045.019466.183128.05.27s.08,0,.15,0c.066779-.034673.119703-.091126.15-.16.008582-.06639.008582-.13361,0-.2Z" fill="#90caf9"/><g opacity="0.4"><path d="M287.34,279.21c-.011438-.032352-.011438-.067648,0-.1-.008672-.03953-.008672-.08047,0-.12l.79-1.43.06-.1.07-.07.29-.16c.010716.029043.010716.060957,0,.09v3.68c.004817.039855.004817.080145,0,.12-.015246.032784-.03953.060537-.07.08l-.3.18c-.020916.015021-.049084.015021-.07,0-.011676-.028864-.011676-.061136,0-.09v-2.78l-.52.92c-.015246.032784-.03953.060537-.07.08s-.05,0-.07,0l-.11-.3Z" fill="#fff"/><path d="M291.1,277.24v1c-.007401.218087-.030797.435338-.07.65-.030677.200021-.087846.395067-.17.58-.070759.179529-.17228.345345-.3.49-.12379.154795-.276659.283884-.45.38-.135799.085367-.290141.136814-.45.15-.116492-.006168-.225171-.060507-.3-.15-.085727-.1153-.143883-.248716-.17-.39-.036904-.187839-.056983-.378594-.06-.57c0-.14,0-.3,0-.48s0-.35,0-.49c-.00077-.218084.019321-.435742.06-.65.034048-.202491.091083-.400437.17-.59.068049-.186878.169724-.359726.3-.51.12379-.154795.276659-.283884.45-.38.133806-.088148.289803-.13668.45-.14.116799-.004809.228661.047394.3.14.089588.113022.148179.247438.17.39.040531.187491.063961.378273.07.57Zm-1.48,1.83c-.010452.192019.034685.38298.13.55.07.11.19.11.36,0c.170007-.09543.300996-.24766.37-.43.076642-.225551.117142-.461801.12-.7c0-.15,0-.3,0-.48s0-.33,0-.47c.007478-.19056-.033827-.379873-.12-.55-.08-.11-.2-.11-.37,0-.169785.092985-.298318.24651-.36.43-.08485.22368-.128881.46077-.13.7c0,.15,0,.3,0,.48s0,.33,0,.47Z" fill="#fff"/><path d="M292,275.22c.070168-.050129.153788-.078002.24-.08.059259.006338.115126.03078.16.07.049904.042908.087808.098041.11.16.011218.079607.011218.160393,0,.24c0,.09,0,.19,0,.3s0,.22,0,.32s0,.18,0,.28c-.026193.100321-.06307.197544-.11.29-.043765.089084-.097437.172947-.16.25-.070616.077184-.151348.14446-.24.2-.069106.04331-.148484.067468-.23.07-.062157.001839-.122767-.019554-.17-.06-.047-.047432-.081379-.105875-.1-.17-.01122-.076256-.01122-.153744,0-.23-.005342-.103264-.005342-.206736,0-.31c0-.11,0-.21,0-.32.008391-.194203.056015-.384696.14-.56.047193-.092504.104186-.179671.17-.26.052593-.073233.116767-.137407.19-.19Zm.2,1.16v-.52c-.003037-.059815-.020169-.118065-.05-.17s-.08,0-.15,0c-.064068.035163-.113652.091831-.14.16-.027106.070564-.043944.144652-.05.22.004129.03655.004129.07345,0,.11v.31c.003634.033234.003634.066766,0,.1-.001478.060495.016005.119938.05.17s.07,0,.14,0c.066779-.034673.119703-.091126.15-.16.027106-.070564.043944-.144652.05-.22Zm1.27-1.88l.06-.11c.015347-.030147.039853-.054653.07-.07l.22-.13h.07c.008433.022571.008433.047429,0,.07v0c0,0,0,0,0,0l-1.8,4.74v.1l-.08.08-.22.12c-.020916.015021-.049084.015021-.07,0-.008433-.022571-.008433-.047429,0-.07v0c0,0,0,0,0,0l1.75-4.73Zm.12,1.78c.067675-.046366.147969-.070804.23-.07.062311-.002851.123283.018668.17.06.050401.044725.085397.104218.1.17.028205.073696.045063.151246.05.23v.62c-.007723.097997-.02446.195075-.05.29-.019195.097795-.0529.192171-.1.28-.041273.092822-.09885.177495-.17.25-.061958.081904-.140286.150016-.23.2-.067675.046366-.147969.070804-.23.07-.062311.002851-.123283-.018668-.17-.06-.050236-.040696-.085433-.097011-.1-.16-.010298-.076321-.010298-.153679,0-.23v-.63c-.008672-.093132-.008672-.186868,0-.28.019751-.100829.053406-.198427.1-.29.043765-.089084.097437-.172947.16-.25.067873-.080003.149069-.147667.24-.2Zm.19,1.16c.006557-.036373.006557-.073627,0-.11v-.33c-.002599-.092045-.019466-.183128-.05-.27s-.08,0-.15,0c-.065349.041015-.117441.100053-.15.17-.01127.0729-.01127.1471,0,.22-.006557.036373-.006557.073627,0,.11v.3c.002599.092045.019466.183128.05.27s.08,0,.15,0c.066779-.034673.119703-.091126.15-.16.008582-.06639.008582-.13361,0-.2Z" fill="#fff"/></g><path d="M268.05,293.11c0,0,0,0,0-.08v-.8c.016205-.160721.071104-.315125.16-.45.1-.12.17-.12.17,0v.67l.27-.16c.09,0,.11.06.06.23-.030018.150079-.107079.286687-.22.39l-.36.2c0,0-.07.02-.08,0Zm1.23-.71c0,0,0-.11,0-.22.032733-.151351.11339-.288115.23-.39l.87-.5c.08-.05.11,0,.06.22-.036974.149656-.116924.285225-.23.39l-.87.5c0,0-.05.02-.06,0Zm-1.23-1.4c0,0,0,0,0-.08v-1.34c.010831-.161881.066204-.317617.16-.45.1-.13.17-.13.17,0v1.34c-.013247.162996-.072166.318959-.17.45-.08.08-.13.08-.16.08Zm3,.43c0,0,0-.11,0-.23.036974-.149656.116924-.285225.23-.39l.87-.5c.09,0,.11.05.07.22-.036974.149656-.116924.285225-.23.39l-.88.5-.06.01Zm-3-3.11c0,0,0-.05,0-.09v-1.34c.012318-.16157.067553-.31692.16-.45.1-.13.17-.13.17,0v1.34c-.011587.163365-.070677.31978-.17.45-.08.06-.13.08-.16.06v.03Zm4.72,2.1c0,0,0-.11,0-.23.032733-.151351.11339-.288115.23-.39l.87-.5c.08,0,.11.05.06.22-.034037.150837-.114469.287223-.23.39l-.87.51h-.06Zm1.74-1c0,0,0-.11,0-.22.034037-.150837.114469-.287223.23-.39l.87-.51c.09-.05.11.06.07.22-.03732.152392-.117068.291085-.23.4l-.88.5c0,0-.04-.03-.06-.04v.04Zm1.75-1c0,0,0-.11,0-.22.029866-.152456.111034-.29009.23-.39l.87-.51c.08-.05.11.05.06.23-.032733.151351-.11339.288115-.23.39l-.87.5c0,0-.05-.03-.06-.05v.05Z" fill="#f0f0f0"/><path d="M278,287.36c-.027859-.070687-.027859-.149313,0-.22.036974-.149656.116924-.285225.23-.39l.88-.5c.08-.05.11.05.06.22-.036974.149656-.116924.285225-.23.39l-.87.5c0,0-.07.02-.07,0Z" fill="#f0f0f0"/><path d="M279.75,286.36c0,0,0-.11,0-.23.036974-.149656.116924-.285225.23-.39l.87-.5c.08-.05.11.05.06.22-.032733.151351-.11339.288115-.23.39l-.87.5c0,0-.05.02-.06.01Z" fill="#f0f0f0"/><path d="M281.5,285.35c0,0,0-.11,0-.23.030018-.150079.107079-.286687.22-.39l.88-.5c.08-.05.11,0,.06.22-.036974.149656-.116924.285225-.23.39l-.87.51h-.06Z" fill="#f0f0f0"/><path d="M283.24,284.34c0,0,0-.11,0-.23.039525-.148601.119082-.283502.23-.39l.87-.5c.08-.05.11,0,.06.22-.027201.151109-.10474.288565-.22.39l-.88.51c-.018564.010718-.041436.010718-.06,0Z" fill="#f0f0f0"/><path d="M237.74,280l10-5.87c.426233-.297855.685956-.780197.7-1.3c0-.5-.31-.72-.69-.5l-10.12,5.78c-.427001.314475-.670445.820088-.65,1.35.02.54.37.75.76.54Z" fill="#f0f0f0"/><path d="M238.43,309.22l10-5.88c.42999-.294494.69083-.778911.7-1.3c0-.49-.31-.71-.69-.49l-10.12,5.78c-.427001.314475-.670445.820088-.65,1.35.04.52.33.76.76.54Z" fill="#f0f0f0"/><path d="M285.77,287.49l10-5.88c.426233-.297855.685956-.780197.7-1.3c0-.49-.31-.71-.69-.49l-10.12,5.78c-.449161.319579-.699288.850152-.66,1.4.05.47.38.71.77.49Z" fill="#f0f0f0"/><path d="M288.82,253l10-5.87c.422624-.301053.6813-.78145.7-1.3c0-.49-.31-.71-.69-.5l-10.12,5.78c-.429827.312123-.674045.819346-.65,1.35.04.54.37.74.76.54Z" fill="#f0f0f0"/><path d="M253,241.65c.110232-1.473994.916144-2.807277,2.17-3.59l24.1-13.92c1.2-.69,2.17-.2,2.17,1.1-.110232,1.473994-.916144,2.807277-2.17,3.59l-24.1,13.92c-1.17.69-2.17.25-2.17-1.1Z" fill="#90caf9"/></g></g></g><g transform="translate(64.035591 29.616109)"><g><g><path d="M207.39,253.4c-1.108438-.559181-2.436583-.451077-3.44.28L73.19,329c-2.793202,1.828146-4.549501,4.876607-4.73,8.21v6.82v0v65.47c-.014931.229758-.014931.460242,0,.69.223398,1.554315,1.164011,2.913391,2.54,3.67l5,2.89.24.14c-1.04867-.564028-1.701974-1.659272-1.7-2.85v-63.79v0-9.57c.184409-3.337427,1.943852-6.388612,4.74-8.22L210,257.11c.931339-.652604,2.123903-.80588,3.19-.41-1.01-.53-4.94-2.78-5.8-3.3Z" opacity="0.4" fill="#263238"/><path d="M214.72,259.25c-.010867-.145827-.037694-.290022-.08-.43s0-.06,0-.09c-.022265-.143381-.059123-.284112-.11-.42-.064667-.215306-.158899-.420597-.28-.61-.037682-.092372-.091903-.177093-.16-.25-.038501-.062925-.085625-.120148-.14-.17-.085039-.120138-.189862-.224961-.31-.31v0c-.126146-.096751-.263878-.177375-.41-.24-1.066097-.39588-2.258661-.242604-3.19.41L79.26,332.46c-2.796148,1.831388-4.555591,4.882573-4.74,8.22v73.32v0c.002659,1.158749.622067,2.228435,1.625727,2.807548s2.239739.580048,3.244273.002452L210,341.49c2.803569-1.825748,4.568092-4.879302,4.75-8.22v-73.42c.00048-.200387-.009534-.400661-.03-.6Z" opacity="0" fill="#455a64"/><path d="M210,257.11L79.27,332.46c-1.396365.876637-2.545959,2.095068-3.34,3.54l-6-3.49c.771416-1.430736,1.89739-2.639351,3.27-3.51L204,253.68c1.005056-.726647,2.330661-.834545,3.44-.28.85.52,4.79,2.76,5.79,3.29-1.079146-.409051-2.29135-.251427-3.23.42Z" fill="#37474f"/></g><g><path d="M95.08,336.71c-.114812-.000992-.220856-.061588-.28-.16-.078885-.155725-.027023-.345887.12-.44l109.9-63.45c.073398-.046047.162718-.059275.246312-.036476s.15383.079541.193688.156476c.043951.072887.057053.160281.03641.242853s-.07333.153517-.14641.197147L95.25,336.67c-.052376.027484-.110864.041246-.17.04Z" opacity="0.5" fill="#fff"/><path d="M95.08,348.8c-.146877.002367-.276501-.09557-.314351-.237506s.025798-.291413.154351-.362494l109.9-63.46c.155159-.084088.349015-.031218.44.12.043951.072887.057053.160281.03641.242853s-.07333.153517-.14641.197147L95.25,348.76c-.054065.022642-.111511.036159-.17.04Z" opacity="0.5" fill="#fff"/><path d="M95.08,360.88c-.115912.003232-.223937-.058496-.28-.16-.078885-.155725-.027023-.345887.12-.44l109.9-63.45c.100157-.085532.241582-.103318.359799-.045249s.190582.180873.184106.312422-.090556.246651-.213905.292827L95.25,360.84c-.052376.027484-.110864.041246-.17.04Z" opacity="0.5" fill="#fff"/><path d="M95.08,373c-.146877.002367-.276501-.09557-.314351-.237506s.025798-.291413.154351-.362494l109.9-63.45c.154856-.092469.355265-.04348.45.11.080084.158708.028476.352241-.12.45L95.25,372.93c-.049416.038065-.108108.062232-.17.07Z" opacity="0.5" fill="#fff"/><path d="M95.08,385.06c-.117461-.000981-.224942-.066237-.28-.17-.078885-.155725-.027023-.345887.12-.44L204.82,321c.158708-.080084.352241-.028476.45.12.084088.155159.031218.349015-.12.44L95.25,385c-.050853.03371-.109253.054322-.17.06Z" fill="#fafafa"/><path d="M99.07,368.16c.054184-.983727.574221-1.88265,1.4-2.42l2.44-1.41c.77-.45,1.4-.09,1.4.8v13.93l-5.24,3v-13.9Z" fill="#90caf9"/><path d="M106.63,350.88c.051919-.981874.568031-1.880428,1.39-2.42l2.44-1.41c.77-.44,1.4-.08,1.4.81v26.84l-5.23,3v-26.82Z" fill="#90caf9"/><path d="M114.18,356.84c.051919-.981874.568031-1.880428,1.39-2.42L118,353c.77-.44,1.39-.08,1.39.81v16.52l-5.23,3l.02-16.49Z" fill="#90caf9"/><path d="M114.18,356.84c.051919-.981874.568031-1.880428,1.39-2.42L118,353c.77-.44,1.39-.08,1.39.81v16.52l-5.23,3l.02-16.49Z" opacity="0.2"/><path d="M106.63,350.88c.051919-.981874.568031-1.880428,1.39-2.42l2.44-1.41c.77-.44,1.4-.08,1.4.81v26.84l-5.23,3v-26.82Z" opacity="0.7" fill="#fff"/><path d="M126.09,344.54c.051919-.981874.568031-1.880428,1.39-2.42l2.44-1.41c.77-.44,1.4-.08,1.4.8v21.95l-5.23,3v-21.92Z" fill="#90caf9"/><path d="M133.64,337.16c.051919-.981874.568031-1.880428,1.39-2.42l2.45-1.41c.77-.44,1.39-.08,1.39.81v25l-5.23,3v-24.98Z" fill="#90caf9"/><path d="M141.19,316.3c.051919-.981874.568031-1.880428,1.39-2.42l2.45-1.41c.77-.44,1.39-.08,1.39.81v41.46l-5.23,3v-41.44Z" fill="#90caf9"/><path d="M141.19,316.3c.051919-.981874.568031-1.880428,1.39-2.42l2.45-1.41c.77-.44,1.39-.08,1.39.81v41.46l-5.23,3v-41.44Z" opacity="0.2"/><path d="M133.64,337.16c.051919-.981874.568031-1.880428,1.39-2.42l2.45-1.41c.77-.44,1.39-.08,1.39.81v25l-5.23,3v-24.98Z" opacity="0.7" fill="#fff"/><path d="M153.1,347.62c.053446-.978749.569573-1.873617,1.39-2.41l2.45-1.41c.77-.45,1.39-.09,1.39.8v3.26l-5.23,3v-3.24Z" fill="#90caf9"/><path d="M160.65,317.32c.050245-.979698.567149-1.875913,1.39-2.41l2.45-1.41c.77-.45,1.39-.09,1.39.8v29.2l-5.23,3v-29.18Z" fill="#90caf9"/><path d="M168.2,320.2c.050325-.982344.566821-1.881568,1.39-2.42l2.45-1.41c.77-.45,1.39-.09,1.39.8v22l-5.23,3v-21.97Z" fill="#90caf9"/><path d="M168.2,320.2c.050325-.982344.566821-1.881568,1.39-2.42l2.45-1.41c.77-.45,1.39-.09,1.39.8v22l-5.23,3v-21.97Z" opacity="0.2"/><path d="M160.65,317.32c.050245-.979698.567149-1.875913,1.39-2.41l2.45-1.41c.77-.45,1.39-.09,1.39.8v29.2l-5.23,3v-29.18Z" opacity="0.7" fill="#fff"/><path d="M180.11,321.37c.06731-.963872.581609-1.840771,1.39-2.37l2.45-1.41c.77-.44,1.39-.08,1.39.81v13.92l-5.23,3v-13.95Z" fill="#90caf9"/><path d="M187.66,296.52c.051919-.981874.568031-1.880428,1.39-2.42l2.45-1.41c.77-.44,1.39-.08,1.39.81v34.41l-5.23,3v-34.39Z" fill="#90caf9"/><path d="M195.21,310.06c.054184-.983727.574221-1.88265,1.4-2.42l2.44-1.41c.77-.45,1.39-.09,1.39.8v16.52l-5.23,3v-16.49Z" fill="#90caf9"/><path d="M195.21,310.06c.054184-.983727.574221-1.88265,1.4-2.42l2.44-1.41c.77-.45,1.39-.09,1.39.8v16.52l-5.23,3v-16.49Z" opacity="0.2"/><path d="M187.66,296.52c.051919-.981874.568031-1.880428,1.39-2.42l2.45-1.41c.77-.44,1.39-.08,1.39.81v34.41l-5.23,3v-34.39Z" opacity="0.7" fill="#fff"/><path d="M81.1,391.49c.127477-.849217.645711-1.589551,1.4-2l7.68-4.43c.77-.45,1.39-.28,1.39.36-.122292.848453-.637398,1.589612-1.39,2l-7.68,4.43c-.77.45-1.4.28-1.4-.36Z" fill="#fafafa"/><path d="M81.1,368.49c.127477-.849217.645711-1.589551,1.4-2l7.68-4.43c.77-.45,1.39-.28,1.39.36-.122292.848453-.637398,1.589612-1.39,2l-7.68,4.43c-.77.45-1.4.28-1.4-.36Z" fill="#fafafa"/><path d="M81.1,345.55c.130426-.848037.647829-1.587185,1.4-2l7.68-4.43c.77-.44,1.39-.28,1.39.37-.122292.848453-.637398,1.589612-1.39,2l-7.68,4.44c-.77.43-1.4.27-1.4-.38Z" fill="#fafafa"/><path d="M103.76,391.19c.122292-.848453.637398-1.589612,1.39-2l16.25-9.38c.77-.45,1.4-.28,1.4.36-.127477.849217-.645711,1.589551-1.4,2l-16.25,9.38c-.77.45-1.39.29-1.39-.36Z" fill="#fafafa"/><path d="M99.7,394.79v-2.69c0-.55-.39-.77-.87-.5L96.5,393c-.515793.329615-.840015.888617-.87,1.5v2.69c0,.55.39.77.87.5l2.33-1.35c.527387-.34203.852723-.921651.87-1.55Z" fill="#90caf9"/><path d="M144.32,367.79c.122292-.848453.637398-1.589612,1.39-2L162,356.43c.77-.45,1.39-.28,1.39.36-.122292.848453-.637398,1.589612-1.39,2l-16.25,9.38c-.81.43-1.43.26-1.43-.38Z" fill="#fafafa"/><path d="M140.25,371.38v-2.69c0-.55-.38-.77-.86-.5l-2.33,1.35c-.515793.329615-.840015.888617-.87,1.5v2.69c0,.55.39.77.87.5l2.33-1.35c.510746-.333042.830625-.890972.86-1.5Z" fill="#90caf9"/><path d="M140.25,371.38v-2.69c0-.55-.38-.77-.86-.5l-2.33,1.35c-.515793.329615-.840015.888617-.87,1.5v2.69c0,.55.39.77.87.5l2.33-1.35c.510746-.333042.830625-.890972.86-1.5Z" opacity="0.7" fill="#fff"/><path d="M184.87,344.38c.127477-.849217.645711-1.589551,1.4-2L202.52,333c.77-.45,1.39-.28,1.39.36-.122292.848453-.637398,1.589612-1.39,2l-16.25,9.38c-.77.45-1.4.26-1.4-.36Z" fill="#fafafa"/><path d="M180.81,348v-2.69c0-.55-.39-.77-.86-.5l-2.33,1.35c-.515793.329615-.840015.888617-.87,1.5v2.69c0,.55.39.77.87.5l2.33-1.35c.508321-.335326.82743-.89191.86-1.5Z" fill="#90caf9"/><path d="M180.81,348v-2.69c0-.55-.39-.77-.86-.5l-2.33,1.35c-.515793.329615-.840015.888617-.87,1.5v2.69c0,.55.39.77.87.5l2.33-1.35c.508321-.335326.82743-.89191.86-1.5Z" opacity="0.2"/></g></g></g><g transform="translate(64.035591 29.616109)"><g><g><path d="M296.12,23.88c-1.108438-.559181-2.436583-.451077-3.44.28L73.19,150.8c-2.792864,1.823816-4.549564,4.869259-4.73,8.2v6.83v0v140.48c-.014931.229758-.014931.460242,0,.69.223398,1.554315,1.164011,2.913391,2.54,3.67l5,2.89.24.14c-1.04867-.564028-1.701974-1.659272-1.7-2.85v-138.85v0-9.57c.184409-3.337427,1.943852-6.388612,4.74-8.22L298.74,27.59c.931339-.652604,2.123903-.80588,3.19-.41-1.02-.53-4.93-2.78-5.81-3.3Z" opacity="0.4" fill="#263238"/><path d="M303.45,29.73c-.006341-.146379-.033273-.291135-.08-.43s0-.06,0-.09c-.022265-.143381-.059123-.284112-.11-.42-.06231-.216189-.156693-.42181-.28-.61-.0406-.090829-.094527-.17509-.16-.25-.038047-.063247-.085223-.120531-.14-.17-.082304-.122417-.187583-.227696-.31-.31v0c-.123515-.095329-.257762-.175876-.4-.24-1.066097-.39588-2.258661-.242604-3.19.41L79.26,154.22c-2.796148,1.831388-4.555591,4.882573-4.74,8.22v148.41v0c.002659,1.158749.622067,2.228435,1.625727,2.807548s2.239739.580048,3.244273.002452L298.74,187c2.798216-1.824783,4.558828-4.874281,4.74-8.21v-148.46c.00048-.200387-.009534-.400661-.03-.6Z" opacity="0" fill="#455a64"/><path d="M298.73,27.59L79.27,154.23c-1.391215.869987-2.540094,2.077343-3.34,3.51l-6-3.49c.786665-1.416081,1.922723-2.60722,3.3-3.46L292.68,24.16c1.005056-.726647,2.330661-.834545,3.44-.28.85.52,4.79,2.76,5.79,3.29-1.064596-.391233-2.253482-.234211-3.18.42Z" opacity="0.4" fill="#37474f"/></g><g><path d="M91.57,288.36c-.224245-.002289-.419537-.153605-.477755-.370173s.034882-.44541.227755-.559827l195-112.58c.240244-.138071.546929-.055244.685.185s.055244.546929-.185.685l-195,112.57c-.074647.047387-.161599.071734-.25.07Z" fill="#fafafa"/><path d="M91.57,290.8c-.276142,0-.5-.223858-.5-.5v-4.7c0-.276142.223858-.5.5-.5s.5.223858.5.5v4.7c0,.276142-.223858.5-.5.5Z" fill="#fafafa"/><path d="M124.07,271.94c-.276142,0-.5-.223858-.5-.5v-4.69c0-.276142.223858-.5.5-.5s.5.223858.5.5v4.69c0,.276142-.223858.5-.5.5Z" fill="#fafafa"/><path d="M156.56,253.09c-.273908-.00532-.49468-.226092-.5-.5v-4.69c0-.276142.223858-.5.5-.5s.5.223858.5.5v4.69c0,.276142-.223858.5-.5.5Z" fill="#fafafa"/><path d="M189.06,234.23c-.276142,0-.5-.223858-.5-.5v-4.73c0-.276142.223858-.5.5-.5s.5.223858.5.5v4.69c.011188.139391-.036509.277098-.131517.379707s-.228644.160741-.368483.160293Z" fill="#fafafa"/><path d="M221.56,215.38c-.276142,0-.5-.223858-.5-.5v-4.69c0-.276142.223858-.5.5-.5s.5.223858.5.5v4.69c-.00532.273908-.226092.49468-.5.5Z" fill="#fafafa"/><path d="M254.05,196.52c-.276142,0-.5-.223858-.5-.5v-4.69c.00532-.273908.226092-.49468.5-.5.276142,0,.5.223858.5.5v4.67c.005446.136038-.044818.268415-.139183.366555s-.22467.153554-.360817.153445Z" fill="#fafafa"/><path d="M286.55,177.67c-.276142,0-.5-.223858-.5-.5v-4.69c0-.276142.223858-.5.5-.5s.5.223858.5.5v4.69c0,.276142-.223858.5-.5.5Z" fill="#fafafa"/><path d="M91.57,241c16.25-9.38,20.31,11.73,32.5,4.69s4.06-49.25,24.37-61s16.25,28.14,36.56,16.41s12.18-86.77,32.49-98.49s16.26,47.47,36.56,35.46s8.13-70.64,32.5-84.71v112.55l-195,112.57.02-37.48Z" fill="#90caf9"/><path d="M91.57,241c16.25-9.38,20.31,11.73,32.5,4.69s4.06-49.25,24.37-61s16.25,28.14,36.56,16.41s12.18-86.77,32.49-98.49s16.26,47.47,36.56,35.46s8.13-70.64,32.5-84.71v112.55l-195,112.57.02-37.48Z" opacity="0.6"/><path d="M286.55,74.56v91.35l-195,112.57v-14.07l14.34-14.49c.29.72,1,.92,1.91.42c1.187835-.789142,1.930159-2.095634,2-3.52.04795-.47548-.143114-.943773-.51-1.25l13.2-20.95c.474837.288731,1.078095.25698,1.52-.08.713105-.449344,1.276887-1.100129,1.62-1.87l13,3.75c-.257428.509187-.397525,1.069574-.41,1.64c0,1.29.91,1.82,2,1.17c1.187835-.789142,1.930159-2.095634,2-3.52.007625-.319361-.064555-.635579-.21-.92l12.61-14.57c.32.59,1,.73,1.82.26c1.187498-.784828,1.930216-2.088298,2-3.51.031882-.431863-.120735-.85701-.42-1.17l13-18.79c.473994.377588,1.146006.377588,1.62,0c1.185434-.791378,1.92701-2.096551,2-3.52.00157-.178446-.018579-.356421-.06-.53l12.31-10.67c.22.9,1,1.19,2,.65c1.185434-.791378,1.92701-2.096551,2-3.52.009515-.320746-.066412-.638257-.22-.92l12.62-14.58c.32.58,1,.71,1.81.25.601901-.371082,1.097884-.891176,1.44-1.51l13.37,7.72c-.360872.606816-.563731,1.294476-.59,2c0,1.3.91,1.82,2,1.18c1.185434-.791378,1.92701-2.096551,2-3.52.00157-.178446-.018579-.356421-.06-.53l12.31-10.67c.22.9,1,1.19,2,.64c1.187498-.784828,1.930216-2.088298,2-3.51.080921-.580453-.233538-1.144029-.77-1.38v0l13.72-27.71c.435138.11587.899191.035482,1.27-.22c1.187498-.784828,1.930216-2.088298,2-3.51v0l12.18-7c0,1.29.91,1.82,2,1.17c1.187835-.789142,1.930159-2.095634,2-3.52.076998-.579511-.23058-1.142055-.76-1.39L284.87,74.8c.555779.274922,1.223431.179543,1.68-.24Z" fill="#90caf9"/><path d="M286.55,74.56v91.35l-195,112.57v-14.07l14.34-14.49c.29.72,1,.92,1.91.42c1.187835-.789142,1.930159-2.095634,2-3.52.04795-.47548-.143114-.943773-.51-1.25l13.2-20.95c.474837.288731,1.078095.25698,1.52-.08.713105-.449344,1.276887-1.100129,1.62-1.87l13,3.75c-.257428.509187-.397525,1.069574-.41,1.64c0,1.29.91,1.82,2,1.17c1.187835-.789142,1.930159-2.095634,2-3.52.007625-.319361-.064555-.635579-.21-.92l12.61-14.57c.32.59,1,.73,1.82.26c1.187498-.784828,1.930216-2.088298,2-3.51.031882-.431863-.120735-.85701-.42-1.17l13-18.79c.473994.377588,1.146006.377588,1.62,0c1.185434-.791378,1.92701-2.096551,2-3.52.00157-.178446-.018579-.356421-.06-.53l12.31-10.67c.22.9,1,1.19,2,.65c1.185434-.791378,1.92701-2.096551,2-3.52.009515-.320746-.066412-.638257-.22-.92l12.62-14.58c.32.58,1,.71,1.81.25.601901-.371082,1.097884-.891176,1.44-1.51l13.37,7.72c-.360872.606816-.563731,1.294476-.59,2c0,1.3.91,1.82,2,1.18c1.185434-.791378,1.92701-2.096551,2-3.52.00157-.178446-.018579-.356421-.06-.53l12.31-10.67c.22.9,1,1.19,2,.64c1.187498-.784828,1.930216-2.088298,2-3.51.080921-.580453-.233538-1.144029-.77-1.38v0l13.72-27.71c.435138.11587.899191.035482,1.27-.22c1.187498-.784828,1.930216-2.088298,2-3.51v0l12.18-7c0,1.29.91,1.82,2,1.17c1.187835-.789142,1.930159-2.095634,2-3.52.076998-.579511-.23058-1.142055-.76-1.39L284.87,74.8c.555779.274922,1.223431.179543,1.68-.24Z" opacity="0.3"/><path d="M91.57,264.91c-.132118-.000769-.258327-.054859-.35-.15-.094656-.093883-.147899-.221681-.147899-.355s.053243-.261117.147899-.355l14.34-14.49c.093883-.094656.221681-.147899.355-.147899s.261117.053243.355.147899c.094656.093883.147899.221681.147899.355s-.053243.261117-.147899.355l-14.34,14.5c-.097003.092062-.226286.142339-.36.14Z" fill="#fafafa"/><path d="M109.34,246.07c-.093142.002915-.184608-.025228-.26-.08-.115062-.068215-.197235-.180503-.227451-.310809s-.005847-.267299.067451-.379191l13.2-21c.068215-.115062.180503-.197235.310809-.227451s.267299-.005847.379191.067451c.230399.149416.301128.454433.16.69l-13.2,21c-.092656.148484-.25498.239084-.43.24Z" fill="#fafafa"/><path d="M138.69,226.91c-.046217.009162-.093783.009162-.14,0l-13-3.75c-.276142-.07732-.43732-.363858-.36-.64s.363858-.43732.64-.36l13,3.75c.127304.03713.234644.123311.298406.239584s.078724.253112.041594.380416c-.051446.223332-.250822.381172-.48.38Z" fill="#fafafa"/><path d="M142.12,225.3c-.119713.000958-.234872-.045826-.32-.13-.102398-.083816-.166543-.205484-.177844-.337328s.031203-.262653.117844-.362672l12.63-14.58c.092164-.094064.21831-.147071.35-.147071s.257836.053007.35.147071c.206358.183992.228534.498903.05.71L142.5,225.12c-.093178.11406-.232719.180158-.38.18Z" fill="#fafafa"/><path d="M158.19,206.28c-.103468-.00048-.20444-.031816-.29-.09-.222588-.162568-.275733-.472577-.12-.7l13-18.76c.073106-.110172.187632-.186125.317567-.210605s.264248.004589.372433.080605c.110819.074985.18696.191258.211391.322813s-.004884.267413-.081391.377187l-13,18.76c-.09214.13633-.245459.218599-.41.22Z" fill="#fafafa"/><path d="M174.78,183.46c-.144813-.00128-.282532-.062891-.38-.17-.191783-.197814-.191783-.512186,0-.71l12.32-10.66c.098734-.087809.228747-.132022.360543-.122608s.254206.071657.339457.172608c.178534.211097.156358.526008-.05.71l-12.31,10.66c-.079261.067055-.17678.108849-.28.12Z" fill="#fafafa"/><path d="M190.87,169c-.19546.003128-.374079-.11022-.454479-.288406s-.047199-.387111.084479-.531594l12.62-14.58c.179493-.209868.495132-.234493.705-.055s.234493.495132.055.705l-12.63,14.58c-.097468.107109-.235187.16872-.38.17Z" fill="#fafafa"/><path d="M220.12,160.89c-.087725-.003049-.173447-.027051-.25-.07l-13.38-7.72c-.237544-.142864-.317485-.449302-.18-.69.064867-.115581.17379-.199955.301917-.23387s.264528-.014482.378083.05387L220.37,160c.237544.142864.317485.449302.18.69-.10059.134724-.262157.209871-.43.2Z" fill="#fafafa"/><path d="M223.53,160c-.144813-.00128-.282532-.062891-.38-.17-.191783-.197814-.191783-.512186,0-.71l12.3-10.65c.132583-.127347.324355-.171668.499371-.115411s.305045.204018.338594.384766-.034795.365329-.177965.480645L223.8,159.88c-.075509.066828-.169797.108734-.27.12Z" fill="#fafafa"/><path d="M239.07,145.09c-.077397.000164-.153403-.020565-.22-.06-.119518-.058165-.210958-.161525-.254115-.287244s-.03448-.263448.024115-.382756l13.69-27.65c.057882-.119725.161939-.210783.288285-.252269s.264127-.029839.381715.032269c.245156.124788.343462.424173.22.67l-13.68,27.65c-.087611.168508-.260122.275848-.45.28Z" fill="#fafafa"/><path d="M256.08,113.64c-.224245-.002289-.419537-.153605-.477755-.370173s.034882-.44541.227755-.559827l12.19-7c.113555-.068352.249957-.087786.378083-.05387s.23705.118289.301917.23387c.137485.240698.057544.547136-.18.69l-12.19,7c-.075725.043886-.162605.064738-.25.06Z" fill="#fafafa"/><path d="M271.57,102.87c-.079628.00268-.158671-.014503-.23-.05-.245156-.124788-.343462-.424173-.22-.67l13.67-27.62c.064226-.181986.227451-.310762.419387-.330876s.378311.072027.47887.236745.097345.372601-.008257.534131L272,102.59c-.077232.168543-.244621.27754-.43.28Z" fill="#fafafa"/><path d="M106.91,251.11c-.27331.005165-.542896-.06396-.78-.2-.575977-.38841-.897216-1.057658-.84-1.75.080265-1.606797.928783-3.076816,2.28-3.95v0c.556516-.436725,1.322856-.490623,1.935023-.136095s.946808,1.046046.844977,1.746095c-.064379,1.624748-.914802,3.116718-2.28,4-.354858.195924-.75469.295882-1.16.29Zm1.16-5c-1.042334.691823-1.70096,1.831469-1.78,3.08c0,.44.12.76.34.88.316905.114719.670279.062089.94-.14c1.042334-.691823,1.70096-1.831469,1.78-3.08.1006-.337113-.043314-.699206-.347882-.875284s-.690173-.120114-.932118.135284Z" fill="#fafafa"/><path d="M123.16,225.32c-.274182.001632-.543699-.070931-.78-.21-.579342-.385494-.901596-1.056856-.84-1.75.064379-1.624748.914802-3.116718,2.28-4v0c.560725-.443588,1.336558-.496546,1.952359-.133268s.944692,1.067944.827641,1.773268c-.080265,1.606797-.928783,3.076816-2.28,3.95-.348044.221827-.747792.349333-1.16.37Zm1.16-5c-1.042334.691823-1.70096,1.831469-1.78,3.08-.044352.335061.083546.669853.34.89.318563.1119.672083.055487.94-.15c1.058684-.704258,1.719468-1.869911,1.78-3.14.038434-.333486-.093024-.664007-.35-.88-.313971-.111115-.662656-.058625-.93.14v.06Z" fill="#fafafa"/><path d="M139.41,230c-.274182.001632-.543699-.070931-.78-.21-.586601-.379983-.913989-1.054016-.85-1.75.066614-1.626633.920988-3.118989,2.29-4c.556516-.436725,1.322856-.490623,1.935023-.136095s.946808,1.046046.844977,1.746095c-.080265,1.606797-.928783,3.076816-2.28,3.95-.345059.232429-.745018.370346-1.16.4Zm1.81-5.25c-.231254.012218-.455311.084605-.65.21-1.046138.68964-1.708672,1.829642-1.79,3.08-.041947.336842.089842.671964.35.89.316905.114719.670279.062089.94-.14c1.045034-.693907,1.704016-1.83787,1.78-3.09.038434-.333486-.093024-.664007-.35-.88-.085688-.04633-.182852-.067151-.28-.06v-.01Z" fill="#fafafa"/><path d="M155.66,211.26c-.272854.001365-.541468-.06751-.78-.2-.583148-.383027-.909461-1.054849-.85-1.75.080265-1.606797.928783-3.076816,2.28-3.95v0c.555105-.434565,1.318377-.488832,1.929381-.137175s.947513,1.038891.850619,1.737175c-.080265,1.606797-.928783,3.076816-2.28,3.95-.346316.214817-.742729.335465-1.15.35Zm1.15-5c-1.045034.693907-1.704016,1.83787-1.78,3.09-.1006.337113.043314.699206.347882.875284s.690173.120114.932118-.135284c1.045034-.693907,1.704016-1.83787,1.78-3.09.040847-.33172-.086729-.661917-.34-.88-.316905-.114719-.670279-.062089-.94.14Z" fill="#fafafa"/><path d="M171.9,187.79c-.269696.001459-.535104-.067479-.77-.2-.583148-.383027-.909461-1.054849-.85-1.75.064379-1.624748.914802-3.116718,2.28-4v0c.556516-.436725,1.322856-.490623,1.935023-.136095s.946808,1.046046.844977,1.746095c-.080265,1.606797-.928783,3.076816-2.28,3.95-.345009.231038-.74549.365682-1.16.39Zm1.16-5c-1.042334.691823-1.70096,1.831469-1.78,3.08-.038434.333486.093024.664007.35.88.313971.111115.662656.058625.93-.14c1.042334-.691823,1.70096-1.831469,1.78-3.08.044352-.335061-.083546-.669853-.34-.89-.318563-.1119-.672083-.055487-.94.15Z" fill="#fafafa"/><path d="M188.15,173.72c-.272689.000043-.540976-.068749-.78-.2-.575977-.38841-.897216-1.057658-.84-1.75.064379-1.624748.914802-3.116718,2.28-4v0c.555105-.434565,1.318377-.488832,1.929381-.137175s.947513,1.038891.850619,1.737175c-.064379,1.624748-.914802,3.116718-2.28,4-.349035.216922-.749234.337672-1.16.35Zm1.16-5c-1.045034.693907-1.704016,1.83787-1.78,3.09-.040847.33172.086729.661917.34.88.316905.114719.670279.062089.94-.14c1.045034-.693907,1.704016-1.83787,1.78-3.09.040847-.33172-.086729-.661917-.34-.88-.316905-.114719-.670279-.062089-.94.14Z" fill="#fafafa"/><path d="M220.65,164.34c-.272689.000043-.540976-.068749-.78-.2-.579342-.385494-.901596-1.056856-.84-1.75.080265-1.606797.928783-3.076816,2.28-3.95.555105-.434565,1.318377-.488832,1.929381-.137175s.947513,1.038891.850619,1.737175c-.064379,1.624748-.914802,3.116718-2.28,4-.354756.197286-.754077.300559-1.16.3Zm1.81-5.25c-.230374.016854-.453312.08888-.65.21-1.045034.693907-1.704016,1.83787-1.78,3.09-.040847.33172.086729.661917.34.88.316905.114719.670279.062089.94-.14c1.045034-.693907,1.704016-1.83787,1.78-3.09.038434-.333486-.093024-.664007-.35-.88-.08639-.045395-.182411-.069401-.28-.07Z" fill="#fafafa"/><path d="M236.9,150.27c-.274311.002641-.544094-.069993-.78-.21-.583235-.378246-.910148-1.047458-.85-1.74.080265-1.606797.928783-3.076816,2.28-3.95v0c.552664-.445855,1.322506-.506256,1.937941-.152048s.949941,1.050204.842059,1.752048c-.080265,1.606797-.928783,3.076816-2.28,3.95-.345729.21611-.742496.336865-1.15.35Zm1.15-5c-1.045034.693907-1.704016,1.83787-1.78,3.09-.1006.337113.043314.699206.347882.875284s.690173.120114.932118-.135284c1.045034-.693907,1.704016-1.83787,1.78-3.09.040847-.33172-.086729-.661917-.34-.88-.316905-.114719-.670279-.062089-.94.14Z" fill="#fafafa"/><path d="M269.39,108.05c-.27331.005165-.542896-.06396-.78-.2-.579342-.385494-.901596-1.056856-.84-1.75.080265-1.606797.928783-3.076816,2.28-3.95v0c.574668-.400019,1.320913-.457422,1.95-.15.577649.386963.899391,1.057258.84,1.75-.080265,1.606797-.928783,3.076816-2.28,3.95-.351945.218615-.755818.339432-1.17.35Zm1.16-5c-1.042334.691823-1.70096,1.831469-1.78,3.08c0,.44.12.76.34.88.316905.114719.670279.062089.94-.14c1.042334-.691823,1.70096-1.831469,1.78-3.08.040847-.33172-.086729-.661917-.34-.88-.316905-.114719-.670279-.062089-.94.14Z" fill="#fafafa"/><path d="M253.14,117.44c-.270988.001324-.537206-.071281-.77-.21-.586601-.379983-.913989-1.054016-.85-1.75.064379-1.624748.914802-3.116718,2.28-4v0c.556516-.436725,1.322856-.490623,1.935023-.136095s.946808,1.046046.844977,1.746095c-.064379,1.624748-.914802,3.116718-2.28,4-.349426.216057-.749387.336735-1.16.35Zm1.16-5c-1.042334.691823-1.70096,1.831469-1.78,3.08-.1006.337113.043314.699206.347882.875284s.690173.120114.932118-.135284c1.042334-.691823,1.70096-1.831469,1.78-3.08.1006-.337113-.043314-.699206-.347882-.875284s-.690173-.120114-.932118.135284Z" fill="#fafafa"/><path d="M285.64,75.34c-.274182.001632-.543699-.070931-.78-.21-.577712-.382237-.900027-1.04989-.84-1.74.064379-1.624748.914802-3.116718,2.28-4c.556516-.436725,1.322856-.490623,1.935023-.136095s.946808,1.046046.844977,1.746095c-.064379,1.624748-.914802,3.116718-2.28,4-.350405.212543-.750301.329754-1.16.34Zm1.82-5.25c-.234436.011869-.46181.084215-.66.21-1.052645.689525-1.719449,1.834206-1.8,3.09-.040847.33172.086729.661917.34.88.316905.114719.670279.062089.94-.14c1.063547-.697781,1.731807-1.859811,1.8-3.13.040847-.33172-.086729-.661917-.34-.88-.088921-.035066-.185669-.045432-.28-.03Z" fill="#fafafa"/><path d="M204.4,155c-.272689.000043-.540976-.068749-.78-.2-.575977-.38841-.897216-1.057658-.84-1.75.080265-1.606797.928783-3.076816,2.28-3.95v0c.552664-.445855,1.322506-.506256,1.937941-.152048s.949941,1.050204.842059,1.752048c-.064379,1.624748-.914802,3.116718-2.28,4-.354251.198548-.753907.301908-1.16.3Zm1.81-5.25c-.231004.013562-.454727.085842-.65.21v0c-1.045034.693907-1.704016,1.83787-1.78,3.09-.040847.33172.086729.661917.34.88.316905.114719.670279.062089.94-.14c1.045034-.693907,1.704016-1.83787,1.78-3.09.038434-.333486-.093024-.664007-.35-.88-.08015-.063986-.17773-.102321-.28-.11v.04Zm-.9-.22v0Z" fill="#fafafa"/><path d="M119.12,247.62c-3.36,0-6.17-2-9.09-4.1-4.81-3.44-9.78-7-18.21-2.13l-.5-.87c9-5.19,14.46-1.27,19.29,2.19c4.2,3,7.83,5.6,13.21,2.5c5.11-3,6.52-12.47,8.16-23.5c2.13-14.41,4.55-30.75,16.21-37.47c10.59-6.12,14.85,1.26,19,8.39c2,3.41,4,6.93,6.71,8.78c3,2,6.46,1.8,10.89-.76c9.94-5.74,13-27.67,16-48.88c3-21.45,6.13-43.63,16.49-49.62c2.83-1.63,5.41-2,7.68-1.17c5.4,2,8.41,10.78,11.32,19.24c2.82,8.24,5.75,16.76,10.69,18.58c2,.74,4.27.36,6.87-1.18c9.48-5.61,11.74-21.71,14.13-38.75c2.66-18.92,5.41-38.48,18.37-46l.5.87C274.26,61,271.55,80.33,268.92,99c-2.43,17.29-4.72,33.62-14.61,39.47-2.84,1.68-5.44,2.1-7.73,1.26-5.38-2-8.39-10.73-11.29-19.19-2.83-8.25-5.76-16.78-10.72-18.63-2-.75-4.24-.39-6.83,1.1-9.94,5.74-13,27.67-16,48.89-3,21.44-6.13,43.62-16.49,49.61-4.74,2.73-8.65,3-12,.71-2.88-2-5-5.59-7-9.1-4-7-7.87-13.64-17.6-8-11.24,6.49-13.62,22.57-15.73,36.76-1.67,11.28-3.11,21-8.64,24.22-1.554007.957009-3.335352,1.481747-5.16,1.52Z" fill="#fafafa"/><path d="M218.66,98.37c1.75-1,3.17-.19,3.17,1.83-.119968,2.231031-1.297739,4.270767-3.17,5.49-1.75,1-3.17.19-3.17-1.83.119968-2.231031,1.297739-4.270767,3.17-5.49Z" fill="#fafafa"/><path d="M152.5,150c-.224245-.002289-.419537-.153605-.477755-.370173s.034882-.44541.227755-.559827l32.34-18.67l4-11.55c.035111-.115356.114113-.212313.22-.27l16.25-9.38c.233646-.105595.509301-.017341.638172.204318s.069189.504877-.138172.655682l-16.09,9.29-4,11.55c-.037795.113904-.116077.209978-.22.27l-32.5,18.76c-.074647.047387-.161599.071734-.25.07Z" fill="#90caf9"/><path d="M153.41,142c.109564-1.471615.911141-2.803866,2.16-3.59l24.11-13.92c1.19-.69,2.16-.2,2.16,1.1-.109564,1.471615-.911141,2.803866-2.16,3.59L155.57,143.1c-1.19.64-2.16.15-2.16-1.1Z" fill="#90caf9"/></g></g></g></svg>
